<?xml version="1.0" encoding="UTF-8"?>
<!DOCTYPE svg PUBLIC "-//W3C//DTD SVG 1.1//EN" "http://www.w3.org/Graphics/SVG/1.1/DTD/svg11.dtd">
<!-- Creator: CorelDRAW -->
<svg xmlns="http://www.w3.org/2000/svg" xml:space="preserve" width="7.33333in" height="7.33333in" style="shape-rendering:geometricPrecision; text-rendering:geometricPrecision; image-rendering:optimizeQuality; fill-rule:evenodd; clip-rule:evenodd"
viewBox="0 0 7.33333 7.33333"
 xmlns:xlink="http://www.w3.org/1999/xlink">
 <defs>
  <style type="text/css">
   <![CDATA[
    .fil3 {fill:url(#id0)}
    .fil0 {fill:url(#id1);fill-rule:nonzero}
    .fil1 {fill:url(#id2);fill-rule:nonzero}
    .fil2 {fill:url(#id3);fill-rule:nonzero}
   ]]>
  </style>
  <linearGradient id="id0" gradientUnits="userSpaceOnUse" x1="-3.93701e-006" y1="3.66667" x2="7.33333" y2="3.66667">
   <stop offset="0" style="stop-color:#E4877C"/>
   <stop offset="1" style="stop-color:#B03686"/>
  </linearGradient>
  <linearGradient id="id1" gradientUnits="userSpaceOnUse" xlink:href="#id0" x1="1.76504" y1="3.50899" x2="3.3523" y2="3.50899">
  </linearGradient>
  <linearGradient id="id2" gradientUnits="userSpaceOnUse" xlink:href="#id0" x1="1.14846" y1="3.66667" x2="6.18487" y2="3.66667">
  </linearGradient>
  <linearGradient id="id3" gradientUnits="userSpaceOnUse" xlink:href="#id0" x1="1.14846" y1="2.13408" x2="6.18487" y2="2.13408">
  </linearGradient>
 </defs>
 <g id="Layer_x0020_1">
  <metadata id="CorelCorpID_0Corel-Layer"/>
  <path class="fil0" d="M1.84504 2.05408l0.724953 0 0.702299 0c0.0441811,0 0.08,0.0358189 0.08,0.08l0 2.74123c0,0.0441811 -0.0358189,0.08 -0.08,0.08 -0.0250039,0 -0.0473307,-0.0114764 -0.062,-0.0294449l-0.65163 -0.695587 -0.655378 0.699594 0.000137795 0.000129921c-0.0302047,0.0322402 -0.0808346,0.0338937 -0.113075,0.00368898 -0.0168031,-0.0157441 -0.0252953,-0.0370354 -0.0252992,-0.0583819l-7.87402e-006 0 0 -2.74123c0,-0.0441811 0.0358189,-0.08 0.08,-0.08zm0.724953 0.16l-0.644953 0 0 2.4591 0.571567 -0.61013c0.00224409,-0.00275197 0.00469685,-0.00538976 0.0073622,-0.00788583 0.0322402,-0.0302047 0.0828701,-0.0285512 0.113075,0.00368898l-0.000137795 0.000129921 0.575386 0.614197 0 -2.4591 -0.622299 0z"/>
  <path class="fil1" d="M1.22846 1.10667l4.8764 0c0.0441811,0 0.08,0.0358189 0.08,0.08l0 4.96c0,0.0441811 -0.0358189,0.08 -0.08,0.08l-4.8764 0c-0.0441811,0 -0.08,-0.0358189 -0.08,-0.08l0 -4.96c0,-0.0441811 0.0358189,-0.08 0.08,-0.08zm4.7964 0.16l-4.7164 0 0 4.8 4.7164 0 0 -4.8z"/>
  <path class="fil2" d="M1.22846 2.05408c-0.0441811,0 -0.08,0.0358189 -0.08,0.08 0,0.0441811 0.0358189,0.08 0.08,0.08l4.8764 0c0.0441811,0 0.08,-0.0358189 0.08,-0.08 0,-0.0441811 -0.0358189,-0.08 -0.08,-0.08l-4.8764 0z"/>
  <path class="fil3" d="M1.28486 0l4.76361 0c0.706677,0 1.28486,0.578185 1.28486,1.28486l0 4.76361c0,0.706677 -0.578185,1.28486 -1.28486,1.28486l-4.76361 0c-0.706677,0 -1.28486,-0.578185 -1.28486,-1.28486l0 -4.76361c0,-0.706677 0.578185,-1.28486 1.28486,-1.28486zm3.93701e-006 0.321209l4.76361 0c0.530008,0 0.96365,0.433642 0.96365,0.96365l0 4.76361c0,0.530008 -0.433642,0.96365 -0.96365,0.96365l-4.76361 0c-0.530008,0 -0.96365,-0.433642 -0.96365,-0.96365l0 -4.76361c0,-0.530008 0.433642,-0.96365 0.96365,-0.96365z"/>
 </g>
</svg>
